<?xml version="1.0" encoding="UTF-8" standalone="no"?>
<!-- Created with Inkscape (http://www.inkscape.org/) -->

<svg
   xmlns:dc="http://purl.org/dc/elements/1.1/"
   xmlns:cc="http://creativecommons.org/ns#"
   xmlns:rdf="http://www.w3.org/1999/02/22-rdf-syntax-ns#"
   xmlns:svg="http://www.w3.org/2000/svg"
   xmlns="http://www.w3.org/2000/svg"
   xmlns:sodipodi="http://sodipodi.sourceforge.net/DTD/sodipodi-0.dtd"
   xmlns:inkscape="http://www.inkscape.org/namespaces/inkscape"
   width="200mm"
   height="200mm"
   viewBox="0 0 200 200"
   version="1.1"
   id="svg1154"
   inkscape:version="0.92.3 (2405546, 2018-03-11)"
   sodipodi:docname="kuglaSat.svg">
  <defs
     id="defs1148" />
  <sodipodi:namedview
     id="base"
     pagecolor="#ffffff"
     bordercolor="#666666"
     borderopacity="1.0"
     inkscape:pageopacity="0.0"
     inkscape:pageshadow="2"
     inkscape:zoom="0.49497475"
     inkscape:cx="126.64081"
     inkscape:cy="166.99594"
     inkscape:document-units="mm"
     inkscape:current-layer="layer2"
     showgrid="false"
     inkscape:window-width="1853"
     inkscape:window-height="1025"
     inkscape:window-x="67"
     inkscape:window-y="27"
     inkscape:window-maximized="1" />
  <metadata
     id="metadata1151">
    <rdf:RDF>
      <cc:Work
         rdf:about="">
        <dc:format>image/svg+xml</dc:format>
        <dc:type
           rdf:resource="http://purl.org/dc/dcmitype/StillImage" />
        <dc:title />
      </cc:Work>
    </rdf:RDF>
  </metadata>
  <g
     inkscape:label="Layer 1"
     inkscape:groupmode="layer"
     id="layer1"
     transform="translate(0,-97)" />
  <g
     inkscape:groupmode="layer"
     id="layer2"
     inkscape:label="Layer 2"
     style="display:inline">
    <g
       id="g1065">
      <circle
         r="99.45752"
         cy="100.35931"
         cx="99.961273"
         id="path1134"
         style="fill:#2aeb2a;fill-opacity:1;stroke:#d4cdc1;stroke-width:0.29051372;stroke-miterlimit:4;stroke-dasharray:none;stroke-opacity:1" />
      <g
         transform="matrix(0.1653467,0,0,0.1653467,-57.484989,-3.4536449)"
         id="g1099">
        <g
           id="g960">
          <path
             style="fill:#25799e"
             inkscape:connector-curvature="0"
             class="st0"
             d="M 826.6,395.4 801.1,412 693.2,246.9 c -4.6,-7 -2.6,-16.5 4.4,-21.1 v 0 c 7,-4.6 16.5,-2.6 21.1,4.4 z"
             id="path952" />
          <path
             style="fill:#f4cc21"
             inkscape:connector-curvature="0"
             class="st1"
             d="m 708.3,242.2 c -49.2,32.2 -62.8,98.7 -30.9,147.4 L 855.7,273.1 c -31.8,-48.7 -98.1,-63 -147.4,-30.9 z"
             id="path954" />
          <path
             style="fill:#fceb54"
             inkscape:connector-curvature="0"
             class="st2"
             d="m 708.3,242.2 c -3.4,2.2 -6.6,4.6 -9.6,7.1 47.8,-24.1 107.4,-8.6 137.1,36.9 l 19.9,-13 c -31.8,-48.8 -98.1,-63.1 -147.4,-31 z"
             id="path956" />
          <path
             style="fill:#f2bb22"
             inkscape:connector-curvature="0"
             class="st3"
             d="M 869.3,298.8 695.5,412.4 c -6.7,4.4 -15.6,2.5 -20,-4.2 v 0 c -4.4,-6.7 -2.5,-15.6 4.2,-20 L 853.5,274.7 c 6.7,-4.4 15.6,-2.5 20,4.2 v 0 c 4.3,6.6 2.5,15.6 -4.2,19.9 z"
             id="path958" />
        </g>
        <g
           id="g970">
          <path
             style="fill:#25799e"
             inkscape:connector-curvature="0"
             class="st0"
             d="M 1093.5,395.4 1119,412 1226.9,246.8 c 4.6,-7 2.6,-16.5 -4.4,-21.1 v 0 c -7,-4.6 -16.5,-2.6 -21.1,4.4 z"
             id="path962" />
          <path
             style="fill:#f4cc21"
             inkscape:connector-curvature="0"
             class="st1"
             d="m 1211.7,242.2 c 49.2,32.2 62.8,98.7 30.9,147.4 L 1064.3,273.1 c 31.8,-48.7 98.2,-63 147.4,-30.9 z"
             id="path964" />
          <path
             style="fill:#fceb54"
             inkscape:connector-curvature="0"
             class="st2"
             d="m 1211.7,242.2 c 3.4,2.2 6.6,4.6 9.6,7.1 -47.8,-24.1 -107.4,-8.6 -137.1,36.9 l -19.9,-13 c 31.8,-48.8 98.2,-63.1 147.4,-31 z"
             id="path966" />
          <path
             style="fill:#f2bb22"
             inkscape:connector-curvature="0"
             class="st3"
             d="m 1050.8,298.8 173.8,113.5 c 6.7,4.4 15.6,2.5 20,-4.2 v 0 c 4.4,-6.7 2.5,-15.6 -4.2,-20 L 1066.6,274.6 c -6.7,-4.4 -15.6,-2.5 -20,4.2 v 0 c -4.4,6.7 -2.5,15.7 4.2,20 z"
             id="path968" />
        </g>
        <rect
           style="fill:#25799e"
           x="951.09998"
           y="263.5"
           class="st0"
           width="17.9"
           height="85.599998"
           id="rect972" />
        <path
           style="fill:#0e5177"
           inkscape:connector-curvature="0"
           class="st4"
           d="m 926.1,278.1 v 0 c 0,-8.1 6.5,-14.6 14.6,-14.6 h 38.7 c 8.1,0 14.6,6.5 14.6,14.6 v 0 c 0,8.1 -6.5,14.6 -14.6,14.6 h -38.7 c -8.1,0 -14.6,-6.6 -14.6,-14.6 z"
           id="path974" />
        <path
           style="fill:#25799e"
           inkscape:connector-curvature="0"
           class="st0"
           d="m 1158.3,942.5 -72.9,-89.8 91.3,-40.7 18.1,114.3 c 3.3,20.8 -23.2,32.7 -36.5,16.2 z"
           id="path976" />
        <path
           style="fill:#25799e"
           inkscape:connector-curvature="0"
           class="st0"
           d="M 765.5,942.5 838.4,852.7 747.1,812 729,926.2 c -3.3,20.9 23.2,32.8 36.5,16.3 z"
           id="path978" />
        <circle
           style="fill:#0e5177"
           class="st4"
           cx="960"
           cy="631"
           r="303.79999"
           id="circle980" />
        <circle
           style="fill:#fff9de"
           class="st5"
           cx="960"
           cy="631"
           r="244.8"
           id="circle982" />
        <g
           id="g1008">
          <circle
             style="fill:#754c24"
             class="st6"
             cx="960"
             cy="441"
             r="15.3"
             id="circle984" />
          <circle
             style="fill:#754c24"
             class="st6"
             cx="960"
             cy="825.70001"
             r="15.3"
             id="circle986" />
          <circle
             style="fill:#754c24"
             class="st6"
             cx="1152.3"
             cy="633.29999"
             r="15.3"
             id="circle988" />
          <circle
             style="fill:#754c24"
             class="st6"
             cx="767.70001"
             cy="633.29999"
             r="15.3"
             id="circle990" />
          <path
             style="fill:#754c24"
             inkscape:connector-curvature="0"
             class="st6"
             d="m 1051.4,481.3 v 0 c -2.4,-1.4 -3.1,-4.5 -1.7,-6.9 l 10.3,-17.1 c 1.4,-2.4 4.5,-3.1 6.9,-1.7 v 0 c 2.4,1.4 3.1,4.5 1.7,6.9 l -10.3,17.1 c -1.5,2.4 -4.6,3.1 -6.9,1.7 z"
             id="path992" />
          <path
             style="fill:#754c24"
             inkscape:connector-curvature="0"
             class="st6"
             d="m 853.2,811.4 v 0 c -2.4,-1.4 -3.1,-4.5 -1.7,-6.9 l 10.3,-17.1 c 1.4,-2.4 4.5,-3.1 6.9,-1.7 v 0 c 2.4,1.4 3.1,4.5 1.7,6.9 L 860,809.7 c -1.4,2.4 -4.4,3.1 -6.8,1.7 z"
             id="path994" />
          <path
             style="fill:#754c24"
             inkscape:connector-curvature="0"
             class="st6"
             d="m 1109.5,537.9 v 0 c -1.5,-2.3 -0.8,-5.4 1.5,-6.9 l 16.9,-10.8 c 2.3,-1.5 5.4,-0.8 6.9,1.5 v 0 c 1.5,2.3 0.8,5.4 -1.5,6.9 l -16.9,10.8 c -2.3,1.5 -5.4,0.8 -6.9,-1.5 z"
             id="path996" />
          <path
             style="fill:#754c24"
             inkscape:connector-curvature="0"
             class="st6"
             d="m 785.2,745.3 v 0 c -1.5,-2.3 -0.8,-5.4 1.5,-6.9 l 16.9,-10.8 c 2.3,-1.5 5.4,-0.8 6.9,1.5 v 0 c 1.5,2.3 0.8,5.4 -1.5,6.9 l -16.9,10.8 c -2.3,1.5 -5.4,0.8 -6.9,-1.5 z"
             id="path998" />
          <path
             style="fill:#754c24"
             inkscape:connector-curvature="0"
             class="st6"
             d="m 1131,742 -17.1,-10.3 c -2.4,-1.4 -3.1,-4.5 -1.7,-6.9 v 0 c 1.4,-2.4 4.5,-3.1 6.9,-1.7 l 17.1,10.3 c 2.4,1.4 3.1,4.5 1.7,6.9 v 0 c -1.4,2.4 -4.5,3.1 -6.9,1.7 z"
             id="path1000" />
          <path
             style="fill:#754c24"
             inkscape:connector-curvature="0"
             class="st6"
             d="m 801,543.8 -17.1,-10.3 c -2.4,-1.4 -3.1,-4.5 -1.7,-6.9 v 0 c 1.4,-2.4 4.5,-3.1 6.9,-1.7 l 17.1,10.3 c 2.4,1.4 3.1,4.5 1.7,6.9 v 0 c -1.5,2.4 -4.6,3.2 -6.9,1.7 z"
             id="path1002" />
          <path
             style="fill:#754c24"
             inkscape:connector-curvature="0"
             class="st6"
             d="m 1064.9,806.8 -10.8,-16.9 c -1.5,-2.3 -0.8,-5.4 1.5,-6.9 v 0 c 2.3,-1.5 5.4,-0.8 6.9,1.5 l 10.8,16.9 c 1.5,2.3 0.8,5.4 -1.5,6.9 v 0 c -2.3,1.5 -5.4,0.8 -6.9,-1.5 z"
             id="path1004" />
          <path
             style="fill:#754c24"
             inkscape:connector-curvature="0"
             class="st6"
             d="m 857.5,482.4 -10.8,-16.9 c -1.5,-2.3 -0.8,-5.4 1.5,-6.9 v 0 c 2.3,-1.5 5.4,-0.8 6.9,1.5 l 10.8,16.9 c 1.5,2.3 0.8,5.4 -1.5,6.9 v 0 c -2.4,1.5 -5.4,0.9 -6.9,-1.5 z"
             id="path1006" />
        </g>
        <line
           style="fill:none;stroke:#754c24;stroke-width:20;stroke-linecap:round;stroke-miterlimit:10"
           class="st7"
           x1="960"
           y1="633.29999"
           x2="881.20001"
           y2="513.40002"
           id="line1010" />
        <line
           style="fill:none;stroke:#dd434e;stroke-width:20;stroke-linecap:round;stroke-miterlimit:10"
           class="st8"
           x1="960"
           y1="634"
           x2="1076"
           y2="634"
           id="line1012" />
        <circle
           style="fill:#dd434e"
           class="st9"
           cx="960"
           cy="633.29999"
           r="34.099998"
           id="circle1014" />
      </g>
    </g>
  </g>
</svg>
