<?xml version="1.0" encoding="UTF-8" standalone="no"?>
<!-- Created with Inkscape (http://www.inkscape.org/) -->

<svg
   xmlns:dc="http://purl.org/dc/elements/1.1/"
   xmlns:cc="http://creativecommons.org/ns#"
   xmlns:rdf="http://www.w3.org/1999/02/22-rdf-syntax-ns#"
   xmlns:svg="http://www.w3.org/2000/svg"
   xmlns="http://www.w3.org/2000/svg"
   xmlns:sodipodi="http://sodipodi.sourceforge.net/DTD/sodipodi-0.dtd"
   xmlns:inkscape="http://www.inkscape.org/namespaces/inkscape"
   width="500"
   height="750"
   id="svg2"
   version="1.1"
   inkscape:version="0.48.4 r9939"
   sodipodi:docname="puca_prema_gore.svg">
  <defs
     id="defs4" />
  <sodipodi:namedview
     id="base"
     pagecolor="#ffffff"
     bordercolor="#666666"
     borderopacity="1.0"
     inkscape:pageopacity="0.0"
     inkscape:pageshadow="2"
     inkscape:zoom="1.4"
     inkscape:cx="106.32586"
     inkscape:cy="77.549254"
     inkscape:document-units="px"
     inkscape:current-layer="layer1"
     showgrid="false"
     inkscape:window-width="1146"
     inkscape:window-height="796"
     inkscape:window-x="272"
     inkscape:window-y="436"
     inkscape:window-maximized="0" />
  <metadata
     id="metadata7">
    <rdf:RDF>
      <cc:Work
         rdf:about="">
        <dc:format>image/svg+xml</dc:format>
        <dc:type
           rdf:resource="http://purl.org/dc/dcmitype/StillImage" />
        <dc:title />
      </cc:Work>
    </rdf:RDF>
  </metadata>
  <g
     inkscape:label="Layer 1"
     inkscape:groupmode="layer"
     id="layer1"
     transform="translate(0,-302.36218)"
     style="display:inline">
    <path
       style="fill:#032f6e;fill-opacity:1;stroke:#000078;stroke-width:1px;stroke-linecap:butt;stroke-linejoin:miter;stroke-opacity:1;display:inline"
       d="m 161.42856,613.79075 -10,20 -4.28571,30 -4.28571,32.85714 0,30 0,55.71429 17.14285,32.85714 37.14286,20 65.71429,10 67.14285,4.28572 34.28572,-17.14286 11.42857,-31.42857 7.14286,-41.42857 0,-64.28572 -7.14286,-34.28571 1.42857,-61.42857 z"
       id="path3805"
       inkscape:connector-curvature="0"
       sodipodi:nodetypes="ccccccccccccccccc" />
    <path
       style="fill:#dddddd;fill-opacity:0.94117647;stroke:none"
       d="M 160,507.14286 144.28571,490 131.42857,515.71429 154.28571,541.42857 190,558.57143 l 50,8.57143 42.85714,7.14285 45.71429,4.28572 L 370,565.71429 384.28571,548.57143 371.42857,504.28571 364.28571,530 l -31.42857,11.42857 -51.42857,-4.28571 -48.57143,-10 z"
       id="path3841"
       inkscape:connector-curvature="0"
       sodipodi:nodetypes="cccccccccccccccc"
       transform="translate(0,302.36218)" />
    <path
       style="fill:#dddddd;fill-opacity:1;stroke:none"
       d="M 198.57143,370 C 200,381.42857 190,401.42857 190,401.42857 l -27.14286,24.28572 -50,-12.85715 -18.571426,-28.57143 -7.142857,-40 L 112.85714,320 150,325.71429 l 24.28571,15.71428 z"
       id="path3843"
       inkscape:connector-curvature="0"
       sodipodi:nodetypes="cccccccccc"
       transform="translate(0,302.36218)" />
    <path
       style="fill:#dddddd;fill-opacity:1;stroke:none"
       d="M 385.71429,414.28571 407.14286,400 l 0,-31.42857 -5.71429,-40 -18.57143,-34.28572 -15.71428,34.28572 11.42857,52.85714 z"
       id="path3845"
       inkscape:connector-curvature="0"
       transform="translate(0,302.36218)" />
    <path
       style="fill:#ed943b;fill-opacity:0.94117647;stroke:none"
       d="m 132.85714,517.14286 c -4.28571,7.14285 -18.57143,21.42857 -18.57143,21.42857 l -15.714281,28.57143 -11.428572,44.28571 -2.857143,7.14286 29.999996,12.85714 38.57143,4.28572 30,4.28571 11.42858,-20 -10.00001,-25.71429 -7.14286,-22.85714 -2.85713,-22.85714 -15.71429,-12.85714 z"
       id="path3873"
       inkscape:connector-curvature="0"
       sodipodi:nodetypes="cccccccccccccc"
       transform="translate(0,302.36218)" />
    <path
       style="fill:#333333;fill-opacity:1;stroke:#000000;stroke-width:1px;stroke-linecap:butt;stroke-linejoin:miter;stroke-opacity:1"
       d="m 82.857143,618.57143 c 0,0 -28.571429,14.28571 -31.428572,21.42857 -2.857142,7.14286 -17.142857,22.85714 -17.142857,22.85714 l 54.285715,11.42857 90.000001,8.57143 18.57143,1.42857 -2.85715,-61.42857 z"
       id="path3875"
       inkscape:connector-curvature="0"
       transform="translate(0,302.36218)" />
    <path
       style="fill:#ed943c;fill-opacity:1;stroke:none"
       d="m 315.71429,578.57143 10,31.42857 18.57142,37.14286 L 372.85714,640 404.28571,625.71429 412.85714,610 401.42857,584.28571 381.42857,570 370,560 z"
       id="path3877"
       inkscape:connector-curvature="0"
       transform="translate(0,302.36218)" />
    <path
       style="fill:#333333;fill-opacity:1;stroke:#000000;stroke-width:1px;stroke-linecap:butt;stroke-linejoin:miter;stroke-opacity:1"
       d="m 339.40826,939.40351 12.85714,-11.42857 14.28572,-10 25.71428,-4.28572 14.28572,-5.71428 24.28571,12.85714 17.14286,12.85714 4.28571,32.85714 0,12.85715 c 0,0 -17.14285,10 -22.85714,8.57143 -5.71428,-1.42858 -51.42857,0 -51.42857,0 l -47.14286,-8.57143 z"
       id="path3879"
       inkscape:connector-curvature="0" />
    <rect
       style="fill:#555555;fill-opacity:1;stroke:none"
       id="rect3881"
       width="78.571426"
       height="155.71428"
       x="168.57143"
       y="47.142857"
       transform="translate(0,302.36218)" />
  </g>
  <g
     inkscape:groupmode="layer"
     id="layer3"
     inkscape:label="Layer2"
     style="display:inline">
    <path
       sodipodi:type="arc"
       style="fill:#256fd9;fill-opacity:0.94117647;stroke:none;display:inline"
       id="path3763"
       sodipodi:cx="235.71428"
       sodipodi:cy="548.57141"
       sodipodi:rx="84.285713"
       sodipodi:ry="84.285713"
       d="m 319.99999,548.57141 a 84.285713,84.285713 0 1 1 -0.002,-0.59369"
       transform="matrix(1.1949153,0,0,1.1949153,-0.94430899,-350.49638)"
       sodipodi:start="0"
       sodipodi:end="6.2761415"
       sodipodi:open="true" />
    <path
       style="fill:#e25f15;fill-opacity:0.94117647000000004;stroke:none;stroke-width:1px;stroke-linecap:butt;stroke-linejoin:miter;stroke-opacity:1"
       d="m 141.42857,207.14286 -14.28571,-10 L 100,185.71429 l -4.285714,-17.14286 5.714284,-22.85714 34.28572,10 7.14285,-12.85715 -8.57143,-40 21.42858,12.85715 8.57142,0 0,20 4.28572,30 L 150,181.42857 z"
       id="path3808"
       inkscape:connector-curvature="0" />
    <path
       style="fill:#e25f15;fill-opacity:0.94117647000000004;stroke:none;stroke-width:1px;stroke-linecap:butt;stroke-linejoin:miter;stroke-opacity:1"
       d="m 141.42857,258.57143 -7.14286,-30 -5.71428,-14.28572 -10,25.71429 -14.28572,1.42857 0,32.85714 24.28572,18.57143 L 140,265.71429 z"
       id="path3810"
       inkscape:connector-curvature="0" />
  </g>
  <g
     inkscape:groupmode="layer"
     id="layer4"
     inkscape:label="Layer3"
     style="display:inline">
    <path
       sodipodi:type="arc"
       style="fill:#105fcf;fill-opacity:1;stroke:none;display:inline"
       id="path2985"
       sodipodi:cx="314.28571"
       sodipodi:cy="288.57144"
       sodipodi:rx="124.28571"
       sodipodi:ry="124.28571"
       d="m 438.57142,288.57144 a 124.28571,124.28571 0 1 1 -0.003,-0.87544"
       transform="translate(-57.142857,-58.57143)"
       sodipodi:start="0"
       sodipodi:end="6.2761415"
       sodipodi:open="true" />
    <path
       style="fill:#05449e;stroke:none;stroke-width:1px;stroke-linecap:butt;stroke-linejoin:miter;stroke-opacity:1;display:inline;fill-opacity:1"
       d="m 185.71429,330.71429 22.14285,13.57142 30.71429,11.42858 37.85714,-1.42858 24.28572,-7.85714 L 325,335 350.71429,311.42857 364.28571,290 375,270 l -5.71429,-2.85714 c 0,0 -10,9.28571 -11.42857,13.57143 C 356.42857,285 349.28571,295 346.42857,298.57143 343.57143,302.14286 324.28571,320 322.85714,322.85714 c -1.42857,2.85715 -21.42857,12.85715 -24.28571,12.85715 -2.85714,0 -33.57143,12.14285 -33.57143,12.14285 l -25,-1.42857 -27.85714,-8.57143 -17.85715,-5.71428 z"
       id="path3941"
       inkscape:connector-curvature="0" />
  </g>
  <g
     inkscape:groupmode="layer"
     id="layer2"
     inkscape:label="Layer"
     style="display:none" />
</svg>
